<svg version="1.0" xmlns="http://www.w3.org/2000/svg"
 width="45pt" height="45pt" viewBox="0 0 512.000000 512.000000"
 preserveAspectRatio="xMidYMid meet">

<g transform="translate(0.000000,512.000000) scale(0.100000,-0.100000)"
fill="currentColor" stroke="currentColor">
<path d="M501 5105 c-178 -39 -348 -172 -429 -336 -77 -155 -72 5 -72 -2209 0
-2214 -5 -2054 72 -2209 82 -166 251 -297 434 -336 104 -22 4004 -22 4108 0
239 50 441 252 491 491 22 104 22 4004 0 4108 -50 239 -252 441 -491 491 -101
21 -4014 21 -4113 0z m4110 -336 c71 -33 125 -87 158 -158 l26 -56 0 -1995 0
-1995 -26 -56 c-33 -71 -87 -125 -158 -158 l-56 -26 -1995 0 -1995 0 -56 26
c-71 33 -125 87 -158 158 l-26 56 -3 1975 c-2 2168 -6 2025 58 2121 36 55 91
96 163 120 50 18 147 18 2032 16 l1980 -2 56 -26z"/>
<path d="M1067 3506 c-21 -8 -47 -22 -57 -31 -44 -40 -62 -121 -39 -182 14
-38 1474 -1501 1516 -1519 45 -20 107 -17 152 5 22 12 335 319 769 756 788
793 762 764 746 852 -9 49 -66 110 -115 123 -92 25 -59 53 -805 -691 l-680
-680 -658 665 c-361 366 -672 674 -689 685 -45 27 -95 33 -140 17z"/>
</g>
</svg>
