<svg version="1.0" xmlns="http://www.w3.org/2000/svg"
 width="223pt" height="48pt" viewBox="0 0 8001.000000 1741.000000"
 preserveAspectRatio="xMidYMid meet">

<g transform="translate(0.000000,1741.000000) scale(0.100000,-0.100000)"
fill="currentColor" stroke="currentColor">
<path d="M54500 6065 l0 -5635 85 0 85 0 0 5635 0 5635 -85 0 -85 0 0 -5635z"/>
<path d="M14040 5667 l0 -3517 585 0 585 0 2 2122 3 2123 2035 -1989 c1119
-1094 2104 -2057 2188 -2140 l152 -151 0 3523 0 3522 -585 0 -585 0 0 -2126
c0 -1169 -4 -2124 -8 -2122 -8 3 -3741 3649 -4179 4082 l-193 190 0 -3517z"/>
<path d="M11850 5655 l0 -3505 585 0 585 0 0 3505 0 3505 -585 0 -585 0 0
-3505z"/>
<path d="M20610 8570 l0 -590 775 0 775 0 0 -2915 0 -2915 590 0 590 0 0 2915
0 2915 775 0 775 0 0 590 0 590 -2140 0 -2140 0 0 -590z"/>
<path d="M25914 9143 c48 -134 2893 -7030 2898 -7025 4 4 404 920 889 2037
485 1117 884 2033 888 2037 4 4 395 -911 870 -2035 474 -1123 866 -2045 870
-2050 6 -6 2913 6977 2928 7033 5 20 0 20 -627 18 l-632 -3 -836 -2012 c-460
-1107 -839 -2009 -843 -2005 -3 4 -388 910 -854 2015 -467 1104 -853 2006
-859 2004 -6 -2 -404 -908 -884 -2013 -480 -1105 -876 -2012 -880 -2016 -4 -4
-381 900 -837 2010 l-830 2017 -634 3 c-600 2 -633 1 -627 -15z"/>
<path d="M36280 5655 l0 -3505 585 0 585 0 0 1455 0 1455 433 0 434 0 987
-1435 c543 -789 995 -1444 1004 -1455 17 -20 26 -20 724 -18 l707 3 -1015
1475 c-943 1370 -1014 1475 -992 1481 13 4 68 19 122 34 554 151 1032 556
1286 1086 208 437 254 936 130 1405 -189 714 -746 1267 -1465 1455 -253 66
-139 62 -1912 66 l-1613 4 0 -3506z m3228 2309 c311 -60 578 -314 664 -631 29
-108 31 -316 4 -423 -83 -332 -345 -586 -678 -654 -67 -14 -201 -16 -1063 -16
l-985 0 0 870 0 870 933 2 c1014 3 1018 3 1125 -18z"/>
<path d="M42750 5655 l0 -3505 2045 0 2045 0 0 585 0 585 -1460 0 -1460 0 0
2920 0 2920 -585 0 -585 0 0 -3505z"/>
<path d="M47860 5655 l0 -3506 1198 4 c1167 3 1200 4 1332 25 418 66 741 167
1083 338 995 499 1698 1444 1886 2534 38 222 46 329 45 615 0 306 -11 420 -65
687 -278 1378 -1374 2468 -2752 2737 -335 66 -308 64 -1574 68 l-1153 4 0
-3506z m2347 2310 c890 -117 1633 -732 1913 -1583 84 -257 115 -454 114 -737
-1 -229 -17 -366 -68 -569 -204 -804 -837 -1453 -1630 -1671 -278 -76 -307
-78 -938 -83 l-568 -3 0 2330 0 2331 529 0 c421 0 554 -3 648 -15z"/>
<path d="M61239 5330 c-82 -12 -194 -49 -256 -86 -148 -87 -268 -271 -316
-489 -33 -144 -37 -288 -37 -1205 0 -917 4 -1061 37 -1205 38 -170 122 -327
227 -423 135 -123 356 -181 586 -153 298 37 481 193 575 491 43 140 55 249 55
528 l0 252 -55 0 -55 0 0 -207 c0 -352 -23 -503 -102 -663 -73 -146 -182 -235
-340 -277 -78 -20 -268 -23 -353 -4 -191 42 -320 163 -394 368 -57 158 -56
126 -56 1308 l0 1090 27 96 c55 200 154 343 288 413 88 46 177 66 305 66 258
0 425 -97 525 -304 73 -151 100 -313 100 -603 l0 -153 55 0 55 0 0 198 c0 228
-15 350 -60 485 -84 250 -233 400 -456 457 -90 23 -262 33 -355 20z"/>
<path d="M69369 5330 c-82 -12 -194 -49 -256 -86 -148 -87 -268 -271 -316
-489 -33 -144 -37 -288 -37 -1205 0 -917 4 -1061 37 -1205 38 -170 122 -327
227 -423 135 -123 356 -181 586 -153 298 37 481 193 575 491 43 140 55 249 55
528 l0 252 -55 0 -55 0 0 -207 c0 -352 -23 -503 -102 -663 -73 -146 -182 -235
-340 -277 -78 -20 -268 -23 -353 -4 -191 42 -320 163 -394 368 -57 158 -56
126 -56 1308 l0 1090 27 96 c55 200 154 343 288 413 88 46 177 66 305 66 258
0 425 -97 525 -304 73 -151 100 -313 100 -603 l0 -153 55 0 55 0 0 198 c0 228
-15 350 -60 485 -84 250 -233 400 -456 457 -90 23 -262 33 -355 20z"/>
<path d="M57217 5312 c-7 -10 -847 -3493 -847 -3510 0 -8 17 -12 49 -12 l49 0
103 415 104 415 624 -2 625 -3 96 -385 c53 -212 100 -397 103 -412 7 -26 11
-28 62 -28 30 0 55 3 55 8 0 4 -195 797 -433 1762 l-433 1755 -76 3 c-42 2
-79 -1 -81 -6z m683 -2584 c0 -5 -270 -8 -600 -8 -422 0 -600 3 -600 11 0 14
579 2399 587 2419 4 11 611 -2386 613 -2422z"/>
<path d="M58680 3551 l0 -1761 55 0 55 0 0 810 0 810 283 0 c376 0 499 -19
651 -98 86 -45 152 -109 193 -188 62 -117 65 -143 73 -644 8 -482 12 -526 60
-639 l22 -51 64 0 63 0 -25 48 c-54 105 -56 124 -64 607 -5 373 -10 464 -24
530 -55 249 -193 398 -433 468 l-82 23 66 18 c246 65 395 227 449 491 9 42 17
162 21 301 12 476 -37 684 -202 850 -77 78 -148 120 -267 156 -70 21 -93 22
-515 26 l-443 3 0 -1760z m878 1633 c170 -35 281 -118 352 -264 69 -144 75
-188 75 -575 0 -383 -5 -420 -72 -547 -82 -157 -242 -239 -518 -267 -59 -6
-220 -11 -357 -11 l-248 0 0 840 0 840 345 0 c276 0 361 -3 423 -16z"/>
<path d="M62550 3550 l0 -1760 55 0 55 0 0 855 0 855 635 0 635 0 0 -855 0
-855 60 0 60 0 0 1760 0 1760 -60 0 -60 0 0 -855 0 -855 -635 0 -635 0 0 855
0 855 -55 0 -55 0 0 -1760z"/>
<path d="M64490 3550 l0 -1760 55 0 55 0 0 1760 0 1760 -55 0 -55 0 0 -1760z"/>
<path d="M64970 5255 l0 -55 385 0 385 0 0 -1705 0 -1705 55 0 55 0 0 1705 0
1705 385 0 385 0 0 55 0 55 -825 0 -825 0 0 -55z"/>
<path d="M66990 3550 l0 -1760 676 0 675 0 -3 52 -3 53 -617 3 -618 2 0 810 0
810 520 0 520 0 0 55 0 55 -520 0 -520 0 0 785 0 785 618 2 617 3 3 53 3 52
-675 0 -676 0 0 -1760z"/>
<path d="M70680 3550 l0 -1760 55 0 55 0 0 855 0 855 635 0 635 0 0 -855 0
-855 60 0 60 0 0 1760 0 1760 -60 0 -60 0 0 -855 0 -855 -635 0 -635 0 0 855
0 855 -55 0 -55 0 0 -1760z"/>
<path d="M72540 5255 l0 -55 385 0 385 0 0 -1705 0 -1705 55 0 55 0 0 1705 0
1705 385 0 385 0 0 55 0 55 -825 0 -825 0 0 -55z"/>
<path d="M74550 3973 c0 -832 4 -1380 10 -1448 31 -331 166 -582 369 -685 109
-55 197 -73 356 -73 229 0 364 49 490 177 80 81 138 182 180 316 56 179 55
157 55 1663 l0 1387 -55 0 -54 0 -3 -1432 -3 -1433 -27 -100 c-75 -274 -221
-428 -441 -465 -87 -15 -283 -7 -348 13 -174 56 -285 176 -354 379 -55 167
-55 154 -55 1656 l0 1382 -60 0 -60 0 0 -1337z"/>
<path d="M76450 3551 l0 -1761 55 0 55 0 0 810 0 810 283 0 c376 0 499 -19
651 -98 86 -45 152 -109 193 -188 62 -117 65 -143 73 -644 8 -482 12 -526 60
-639 l22 -51 64 0 63 0 -25 48 c-54 105 -56 124 -64 607 -5 373 -10 464 -24
530 -55 249 -193 398 -433 468 l-82 23 66 18 c246 65 395 227 449 491 9 42 17
162 21 301 12 476 -37 684 -202 850 -77 78 -148 120 -267 156 -70 21 -93 22
-515 26 l-443 3 0 -1760z m878 1633 c170 -35 281 -118 352 -264 69 -144 75
-188 75 -575 0 -383 -5 -420 -72 -547 -82 -157 -242 -239 -518 -267 -59 -6
-220 -11 -357 -11 l-248 0 0 840 0 840 345 0 c276 0 361 -3 423 -16z"/>
<path d="M78420 3550 l0 -1760 676 0 675 0 -3 52 -3 53 -617 3 -618 2 0 810 0
810 520 0 520 0 0 55 0 55 -520 0 -520 0 0 785 0 785 618 2 617 3 3 53 3 52
-675 0 -676 0 0 -1760z"/>
</g>
</svg>
